<mxfile host="65bd71144e">
    <diagram name="Page-1" id="HjrRZ_Cy4e2nAflSNzTi">
        <mxGraphModel dx="1454" dy="563" grid="1" gridSize="10" guides="1" tooltips="1" connect="1" arrows="1" fold="1" page="1" pageScale="1" pageWidth="850" pageHeight="1100" math="0" shadow="0">
            <root>
                <mxCell id="0"/>
                <mxCell id="1" parent="0"/>
                <mxCell id="JHLqIhkrVFdrXxeVgvKj-17" style="edgeStyle=orthogonalEdgeStyle;rounded=0;orthogonalLoop=1;jettySize=auto;html=1;exitX=0.5;exitY=0;exitDx=0;exitDy=0;entryX=0.5;entryY=1;entryDx=0;entryDy=0;" parent="1" source="JHLqIhkrVFdrXxeVgvKj-2" target="JHLqIhkrVFdrXxeVgvKj-3" edge="1">
                    <mxGeometry relative="1" as="geometry"/>
                </mxCell>
                <mxCell id="JHLqIhkrVFdrXxeVgvKj-2" value="&lt;div&gt;&lt;b&gt;Reception&lt;/b&gt;&lt;/div&gt;&lt;div&gt;Elara&lt;/div&gt;&lt;div&gt;Knows contact info.&lt;/div&gt;&lt;div&gt;Knows about office drama (finance)&lt;/div&gt;&lt;div&gt;Susceptible to trust and pretexting&lt;/div&gt;&lt;div&gt;Has OSINT info on her&lt;br&gt;&lt;/div&gt;" style="rounded=0;whiteSpace=wrap;html=1;" parent="1" vertex="1">
                    <mxGeometry x="475" y="590" width="210" height="110" as="geometry"/>
                </mxCell>
                <mxCell id="JHLqIhkrVFdrXxeVgvKj-20" style="edgeStyle=orthogonalEdgeStyle;rounded=0;orthogonalLoop=1;jettySize=auto;html=1;exitX=0.5;exitY=0;exitDx=0;exitDy=0;entryX=0.5;entryY=1;entryDx=0;entryDy=0;" parent="1" source="JHLqIhkrVFdrXxeVgvKj-3" target="JHLqIhkrVFdrXxeVgvKj-19" edge="1">
                    <mxGeometry relative="1" as="geometry"/>
                </mxCell>
                <mxCell id="JHLqIhkrVFdrXxeVgvKj-22" style="edgeStyle=orthogonalEdgeStyle;rounded=0;orthogonalLoop=1;jettySize=auto;html=1;entryX=0.5;entryY=1;entryDx=0;entryDy=0;" parent="1" source="JHLqIhkrVFdrXxeVgvKj-3" target="JHLqIhkrVFdrXxeVgvKj-18" edge="1">
                    <mxGeometry relative="1" as="geometry"/>
                </mxCell>
                <mxCell id="JHLqIhkrVFdrXxeVgvKj-31" style="edgeStyle=orthogonalEdgeStyle;rounded=0;orthogonalLoop=1;jettySize=auto;html=1;exitX=1;exitY=0.5;exitDx=0;exitDy=0;entryX=0;entryY=0.5;entryDx=0;entryDy=0;" parent="1" source="JHLqIhkrVFdrXxeVgvKj-3" target="JHLqIhkrVFdrXxeVgvKj-26" edge="1">
                    <mxGeometry relative="1" as="geometry"/>
                </mxCell>
                <mxCell id="JHLqIhkrVFdrXxeVgvKj-3" value="&lt;div&gt;&lt;b&gt;Project&lt;/b&gt;&lt;/div&gt;&lt;div&gt;Don Draper&lt;/div&gt;&lt;div&gt;Knows about EPA and seller holdout (knows finance is giving case to legal)&lt;br&gt;&lt;/div&gt;&lt;div&gt;Doesn't know names of team members in charge&lt;br&gt;&lt;/div&gt;&lt;div&gt;Susceptible to impersonation (marketing)&lt;br&gt;&lt;/div&gt;" style="rounded=0;whiteSpace=wrap;html=1;" parent="1" vertex="1">
                    <mxGeometry x="460" y="420" width="240" height="110" as="geometry"/>
                </mxCell>
                <mxCell id="JHLqIhkrVFdrXxeVgvKj-4" value="Final Goal" style="swimlane;whiteSpace=wrap;html=1;" parent="1" vertex="1">
                    <mxGeometry x="35" y="240" width="200" height="90" as="geometry"/>
                </mxCell>
                <mxCell id="JHLqIhkrVFdrXxeVgvKj-5" value="&lt;div&gt;There are 3 possible locations for new Harvesta foods grocery store.&lt;/div&gt;&lt;div&gt;User has to narrow it down to 1&lt;/div&gt;&lt;div&gt;&lt;br&gt;&lt;/div&gt;" style="whiteSpace=wrap;html=1;" parent="JHLqIhkrVFdrXxeVgvKj-4" vertex="1">
                    <mxGeometry y="20" width="200" height="70" as="geometry"/>
                </mxCell>
                <mxCell id="JHLqIhkrVFdrXxeVgvKj-6" value="Available Info." style="swimlane;whiteSpace=wrap;html=1;" parent="1" vertex="1">
                    <mxGeometry x="30" y="360" width="210" height="90" as="geometry">
                        <mxRectangle x="30" y="370" width="120" height="30" as="alternateBounds"/>
                    </mxGeometry>
                </mxCell>
                <mxCell id="JHLqIhkrVFdrXxeVgvKj-7" value="&lt;div&gt;EPA report that removes one location.&lt;/div&gt;&lt;div&gt;Seller holdout that removes another.&lt;/div&gt;&lt;div&gt;&lt;br&gt;&lt;/div&gt;" style="whiteSpace=wrap;html=1;" parent="JHLqIhkrVFdrXxeVgvKj-6" vertex="1">
                    <mxGeometry y="20" width="210" height="70" as="geometry"/>
                </mxCell>
                <mxCell id="JHLqIhkrVFdrXxeVgvKj-11" value="OSINT" style="swimlane;whiteSpace=wrap;html=1;" parent="1" vertex="1">
                    <mxGeometry x="30" y="480" width="210" height="90" as="geometry">
                        <mxRectangle x="30" y="370" width="120" height="30" as="alternateBounds"/>
                    </mxGeometry>
                </mxCell>
                <mxCell id="JHLqIhkrVFdrXxeVgvKj-12" value="&lt;div&gt;Announcement date&lt;/div&gt;&lt;div&gt;Team members&lt;/div&gt;&lt;div&gt;Info. on Elara&lt;br&gt;&lt;/div&gt;" style="whiteSpace=wrap;html=1;" parent="JHLqIhkrVFdrXxeVgvKj-11" vertex="1">
                    <mxGeometry y="20" width="210" height="70" as="geometry"/>
                </mxCell>
                <mxCell id="JHLqIhkrVFdrXxeVgvKj-15" value="Access" style="swimlane;whiteSpace=wrap;html=1;" parent="1" vertex="1">
                    <mxGeometry x="5" y="610" width="260" height="90" as="geometry">
                        <mxRectangle x="30" y="370" width="120" height="30" as="alternateBounds"/>
                    </mxGeometry>
                </mxCell>
                <mxCell id="JHLqIhkrVFdrXxeVgvKj-16" value="&lt;div&gt;Hired on as intern on marketing.&lt;/div&gt;&lt;div&gt;Has access to teams but doesn't know names.&lt;/div&gt;&lt;div&gt;Can spoof email addresses&lt;br&gt;&lt;/div&gt;" style="whiteSpace=wrap;html=1;" parent="JHLqIhkrVFdrXxeVgvKj-15" vertex="1">
                    <mxGeometry y="20" width="260" height="70" as="geometry"/>
                </mxCell>
                <mxCell id="JHLqIhkrVFdrXxeVgvKj-27" style="edgeStyle=orthogonalEdgeStyle;rounded=0;orthogonalLoop=1;jettySize=auto;html=1;exitX=1;exitY=0.5;exitDx=0;exitDy=0;entryX=0.5;entryY=0;entryDx=0;entryDy=0;" parent="1" source="JHLqIhkrVFdrXxeVgvKj-18" target="JHLqIhkrVFdrXxeVgvKj-26" edge="1">
                    <mxGeometry relative="1" as="geometry"/>
                </mxCell>
                <mxCell id="JHLqIhkrVFdrXxeVgvKj-18" value="&lt;div&gt;&lt;b&gt;Finance&lt;/b&gt;&lt;/div&gt;&lt;div&gt;Ann Gunn&lt;/div&gt;&lt;div&gt;Knows location where seller is holding out&lt;/div&gt;&lt;div&gt;Susceptible to diversion theft (legal)&lt;br&gt;&lt;/div&gt;" style="rounded=0;whiteSpace=wrap;html=1;" parent="1" vertex="1">
                    <mxGeometry x="600" y="260" width="260" height="110" as="geometry"/>
                </mxCell>
                <mxCell id="JHLqIhkrVFdrXxeVgvKj-30" style="edgeStyle=orthogonalEdgeStyle;rounded=0;orthogonalLoop=1;jettySize=auto;html=1;exitX=0.5;exitY=0;exitDx=0;exitDy=0;entryX=0.5;entryY=0;entryDx=0;entryDy=0;" parent="1" source="JHLqIhkrVFdrXxeVgvKj-19" target="JHLqIhkrVFdrXxeVgvKj-26" edge="1">
                    <mxGeometry relative="1" as="geometry"/>
                </mxCell>
                <mxCell id="JHLqIhkrVFdrXxeVgvKj-19" value="&lt;div&gt;&lt;b&gt;Real Estate&lt;/b&gt;&lt;/div&gt;&lt;div&gt;Ben Dover&lt;/div&gt;&lt;div&gt;Doesn't love his team, want's to switch to projects&lt;br&gt;&lt;/div&gt;&lt;div&gt;Has EPA reports for all 3 (one failed)&lt;/div&gt;&lt;div&gt;Susceptible to QPQ/impersonation (projects)&lt;br&gt;&lt;/div&gt;" style="rounded=0;whiteSpace=wrap;html=1;" parent="1" vertex="1">
                    <mxGeometry x="290" y="260" width="270" height="110" as="geometry"/>
                </mxCell>
                <mxCell id="JHLqIhkrVFdrXxeVgvKj-21" style="edgeStyle=orthogonalEdgeStyle;rounded=0;orthogonalLoop=1;jettySize=auto;html=1;exitX=0.5;exitY=1;exitDx=0;exitDy=0;" parent="1" source="JHLqIhkrVFdrXxeVgvKj-18" target="JHLqIhkrVFdrXxeVgvKj-18" edge="1">
                    <mxGeometry relative="1" as="geometry"/>
                </mxCell>
                <mxCell id="JHLqIhkrVFdrXxeVgvKj-26" value="&lt;div&gt;&lt;b&gt;Security&lt;/b&gt;&lt;/div&gt;&lt;div&gt;Can only get reported by upper level. If you are being to sus, you get reported an a timer pops up before you are arrested.&lt;br&gt;&lt;/div&gt;" style="rounded=0;whiteSpace=wrap;html=1;" parent="1" vertex="1">
                    <mxGeometry x="780" y="428.75" width="200" height="92.5" as="geometry"/>
                </mxCell>
            </root>
        </mxGraphModel>
    </diagram>
</mxfile>